# xmcd
#
# Track frame offsets:
#	150
#	26630
#	33717
#	41022
#	50835
#	82455
#	117782
#	164776
#	188877
#	212978
#	254657
#
# Disc length: 3593 seconds
#
# Revision: 1
# Processed by: cddbd v1.5.1PL0 Copyright (c) Steve Scherf et al.
# Submitted via: EasyCDDAExtractor 8.0.2.1
#
DISCID=b00e070b
DTITLE=Alice Cooper - Olympen Lund 21-101-72
DYEAR=1972
DGENRE=Hard Rock
TTITLE0=Intro - Public Aninal
TTITLE1=Caught In A Dream
TTITLE2=Under My Wheels
TTITLE3=Be My Lover
TTITLE4=I'm Eighteen
TTITLE5=Is It My Body
TTITLE6=Halo Of Flies
TTITLE7=Gutter Cats Vs The Jets
TTITLE8=Street Fight
TTITLE9=Killer
TTITLE10=School' Out
EXTD=
EXTT0=
EXTT1=
EXTT2=
EXTT3=
EXTT4=
EXTT5=
EXTT6=
EXTT7=
EXTT8=
EXTT9=
EXTT10=
PLAYORDER=
